<?xml version="1.0" standalone="no"?>
<!DOCTYPE svg PUBLIC "-//W3C//DTD SVG 20010904//EN"
 "http://www.w3.org/TR/2001/REC-SVG-20010904/DTD/svg10.dtd">
<svg version="1.0" xmlns="http://www.w3.org/2000/svg"
 width="500.000000pt" height="500.000000pt" viewBox="0 0 500.000000 500.000000"
 preserveAspectRatio="xMidYMid meet">
<metadata>
Created by potrace 1.11, written by Peter Selinger 2001-2013
</metadata>
<g transform="translate(0.000000,500.000000) scale(0.100000,-0.100000)"
fill="#000000" stroke="none">
<path d="M2420 4978 c-36 -10 -75 -21 -87 -24 -23 -4 -326 -133 -383 -163 -19
-10 -91 -59 -160 -109 -115 -83 -209 -170 -338 -312 -28 -30 -52 -53 -54 -50
-2 3 -33 70 -68 150 -87 197 -84 190 -91 190 -7 0 -47 -44 -134 -146 -27 -32
-70 -81 -95 -110 -25 -28 -54 -69 -66 -90 -12 -22 -50 -88 -85 -149 -86 -147
-201 -465 -214 -589 -2 -27 -6 -50 -8 -52 -6 -6 -201 130 -260 180 l-54 46
-21 -83 c-20 -75 -27 -112 -48 -247 -16 -98 -5 -455 17 -550 6 -25 12 -54 13
-65 2 -11 6 -33 9 -50 4 -16 9 -46 12 -65 5 -30 48 -179 62 -218 4 -9 -10 -11
-63 -7 -171 14 -236 22 -269 35 -15 6 -28 10 -31 10 -2 0 -4 -22 -4 -50 0 -39
19 -98 90 -276 l89 -226 127 -172 c131 -177 158 -207 282 -315 40 -36 69 -68
65 -72 -4 -4 -55 -26 -113 -49 -58 -22 -114 -45 -125 -49 -11 -5 -35 -14 -52
-21 -31 -12 -37 -28 -21 -55 3 -5 9 -25 13 -43 6 -27 19 -41 68 -72 34 -21 67
-43 74 -49 7 -6 14 -11 16 -11 4 0 121 -73 379 -237 99 -62 129 -76 240 -107
126 -36 147 -40 266 -52 34 -4 62 -10 62 -14 0 -4 -52 -76 -115 -161 -63 -85
-115 -157 -115 -161 0 -5 11 -9 25 -9 14 -1 28 -2 33 -3 33 -8 72 -16 97 -20
17 -3 100 -17 185 -31 85 -15 168 -28 183 -31 16 -3 32 -5 35 -6 7 -2 106 9
162 17 51 8 107 15 155 20 28 3 66 7 85 10 19 2 54 7 77 10 23 3 90 26 149 51
59 24 108 43 110 41 2 -2 -1 -20 -7 -40 -5 -20 -12 -49 -13 -65 -2 -15 -12
-63 -21 -107 -9 -44 -19 -97 -22 -118 l-5 -37 39 5 c21 3 52 8 68 10 200 29
776 347 888 490 18 22 44 54 58 70 14 17 39 45 55 63 l29 33 40 -88 c115 -258
114 -256 132 -242 9 8 61 68 116 134 55 66 116 140 136 163 51 62 223 384 235
442 8 39 103 371 107 375 2 2 65 -46 139 -106 121 -97 138 -108 165 -103 17 4
31 7 32 8 3 3 13 96 28 271 3 39 8 77 10 85 6 20 18 166 18 210 0 156 -15 314
-38 395 -14 50 -30 106 -35 125 -5 19 -19 68 -31 108 -11 41 -18 77 -14 80 13
14 94 18 150 8 22 -4 49 -9 60 -11 11 -1 38 -6 60 -10 22 -3 52 -9 68 -11 20
-4 27 -2 27 10 0 32 -144 395 -205 515 -72 143 -178 278 -362 463 -59 59 -105
109 -102 111 4 3 80 30 219 79 47 17 93 40 103 51 19 21 18 22 -30 66 -26 25
-81 76 -121 113 -67 64 -347 258 -371 258 -6 0 -19 4 -29 9 -44 25 -297 114
-417 147 -5 2 -43 9 -83 15 -54 10 -71 16 -68 26 3 8 53 76 111 152 58 77 105
141 105 144 0 11 -175 58 -265 71 -22 4 -64 11 -92 17 -50 10 -412 7 -459 -4
-12 -3 -39 -8 -59 -11 -36 -6 -157 -31 -200 -42 -11 -3 -31 -7 -44 -10 -13 -3
-40 -12 -60 -20 -20 -9 -51 -23 -69 -30 l-33 -15 6 88 c3 48 8 106 10 128 10
79 13 165 7 164 -4 -1 -36 -10 -72 -21z m189 -1985 c25 -8 53 -16 61 -18 21
-4 93 -47 102 -60 4 -5 8 -6 8 -2 0 12 110 -98 110 -110 0 -6 7 -16 16 -23 40
-34 81 -172 81 -274 0 -109 -42 -247 -87 -283 -8 -7 -11 -13 -6 -13 17 0 -110
-116 -156 -142 -42 -23 -95 -45 -138 -56 -45 -11 -191 -9 -239 4 -184 49 -321
188 -369 374 -2 8 -5 56 -7 105 -3 70 1 104 17 155 20 63 70 152 112 199 27
30 137 111 151 111 5 0 22 7 37 14 16 8 45 17 65 21 20 3 39 8 42 11 10 10
155 1 200 -13z"/>
</g>
</svg>
