<svg viewBox="0 0 1557.6 1149.4" xmlns="http://www.w3.org/2000/svg"><path d="M5.4 555.6c0-6 .6-12-5.4-15.8v-28.5h65.5c13.7 0 32.1-.2 43.3 8.4 18.4 14.1 15.8 39.8 15.8 43.9v12.8c0 30.6-10.1 49.5-51.2 49.5H55.5c0 7.9-.6 13.9 5.4 17.6V672H0v-28.5c6-3.8 5.4-9.8 5.4-15.8zM55.5 592h4.7c14.8 0 14.3-8.4 14.3-23.5 0-15.2.6-23.6-14.3-23.6h-4.7zM131.9 672.1v-28.5c6-3.8 5.4-9.8 5.4-15.8v-72.2c0-6 .6-12-5.4-15.8v-28.5h61v28.5c-6 3.8-5.4 9.8-5.4 15.8V638h4.9c12.8 0 12.6-7.7 12.6-17.8v-26.1h44v78zM312 672.1h-55.3v-28.5c5.4-3.8 6-12 7.5-18.2l21.2-114.1h71.3l23.5 116.5c.9 5.1 2.8 14.1 8.4 15.8v28.5h-63.2v-28.5c3.9-1.5 5.8-4.5 5.8-8.8 0-1.7-.4-3.2-.8-4.7h-24.2c-.4 1.5-.8 3.2-.8 4.7 0 4.5 2.3 7.7 6.6 8.8zm13.9-73.3l-8.3-47.7h-.4l-7.9 47.7zM481.2 584h.4v-28.3c0-6 .6-12-5.4-15.8v-28.5h51.4v28.5c-6 3.8-5.4 9.8-5.4 15.8v116.5h-48.6L443.8 600h-.4v28c0 6-.6 12 5.4 15.8v28.5h-49.9v-28.5c6-3.8 5.4-9.8 5.4-15.8v-72.2c0-6 .6-12-5.4-15.8v-28.5h54.4zM663.8 614v58.2H543.3v-28.5c6-3.8 5.4-9.8 5.4-15.8v-72.2c0-6 .6-12-5.4-15.8v-28.5h120.4v54.4h-46.2v-4.9c0-10.9-1.5-15.4-15-15.4h-3v28.7h31.7v31.3h-31.7V638h3c15 0 14.8-5.6 15-18.8V614zM744.3 511.4c13.7 0 29.5.2 40.9 9 13.1 10.3 14.4 25 14.4 40.3v60.2c0 15.8-.8 28-12.9 39.4-11.4 10.9-25.7 11.8-40.9 11.8h-70.9v-28.5c5.6-2.4 6.2-7.3 6.4-12.8v-78.2c-.2-5.6-.6-10.3-6.4-12.8v-28.5h69.4zm-13 126.8h3.9c10.9 0 14.3-3.9 14.3-15.6V562c0-11.6-3.4-15.6-14.3-15.6h-3.9zM877.3 672.1v-28.5c5.6-2.4 6.2-7.3 6.4-12.8v-78.2c-.2-5.4-.8-10.3-6.4-12.8v-28.5h72.8c12.6 0 26.6-.2 37.5 6.6 12 7.3 15.9 20.8 15.9 34.1 0 18.4-7.3 31-25.3 36v.4c20.6 2.6 27.8 19.1 27.8 37.9 0 13.1-3 27.8-13.5 36.2-11.4 9.4-26.1 9.6-40.1 9.6zm56.5-98.5h3.4c11.1 0 16.7-2.4 16.7-14.4 0-11.8-6.2-14.4-16.7-14.4h-3.4zm0 65.1h4.3c12.2 0 16.5-4.9 16.5-17.6 0-12.4-4.3-17.3-16.5-17.3h-4.3zM1140.3 625.6c0 39.8-24.4 49.7-59.8 49.7-35.5 0-59.8-9.9-59.8-49.7v-67.7c0-39.8 24.4-49.7 59.8-49.7 35.5 0 59.8 9.9 59.8 49.7zm-69.6 2.4c0 1.1-.6 12.6 9.8 12.6 10.3 0 9.8-11.4 9.8-12.6v-72.8c0-1.1.6-12.4-9.8-12.4-10.3 0-9.8 11.3-9.8 12.4zM1205.1 672.1h-55.3v-28.5c5.4-3.8 6-12 7.5-18.2l21.2-114.1h71.3l23.5 116.5c.9 5.1 2.8 14.1 8.4 15.8v28.5h-63.2v-28.5c3.9-1.5 5.8-4.5 5.8-8.8 0-1.7-.4-3.2-.8-4.7h-24.2c-.4 1.5-.8 3.2-.8 4.7 0 4.5 2.3 7.7 6.6 8.8zm13.8-73.3l-8.3-47.7h-.4l-7.9 47.7zM1345.4 627.9c0 6-.6 12 5.4 15.8v28.5h-61v-28.5c6-3.8 5.4-9.8 5.4-15.8v-72.2c0-6 .6-12-5.4-15.8v-28.5h69.6c12.4 0 28-.2 38.8 6.4 13.1 7.7 17.6 21.4 17.6 36 0 17.6-5.3 33-24 37.7v.4c15.8 3.8 21 10.5 21 26.8v9.2c0 5.4 0 13.3 6.2 15.8v28.5h-53.8c-2.1-8.8-3.4-16.3-2.8-43.2 0-12.8-1.3-19.1-15-19.5h-2.1v18.4zm0-50.5h5.1c10.9 0 14.3-5.6 14.3-16.9 0-10.3-3.4-15.9-14.3-15.9h-5.1zM1502.2 511.4c13.7 0 29.5.2 40.9 9 13.1 10.3 14.4 25 14.4 40.3v60.2c0 15.8-.8 28-12.9 39.4-11.4 10.9-25.7 11.8-40.9 11.8h-70.9v-28.5c5.6-2.4 6.2-7.3 6.4-12.8v-78.2c-.2-5.6-.6-10.3-6.4-12.8v-28.5h69.4zm-12.9 126.8h3.9c10.9 0 14.3-3.9 14.3-15.6V562c0-11.6-3.4-15.6-14.3-15.6h-3.9zM1024.8 234c-91.6-62-192.8-88.9-303.3-80C768 254.7 759.4 360.9 763 466.3h144.8c-43.3-35.5-85.4-59.1-138.3-59.9 6.1-15.5 11.7-29.6 17.2-43.6 2 .5 3.9 1 5.9 1.5v37.4c41.1 4.9 79.1 17 106.6 44.5 28.4 28.4 59.4 21.1 95.1 20.7-46.4-70.8-111.3-107.7-191.6-128.8 6.5-1.6 8.4-2.5 10.2-2.5 3.4.1 6.9.7 10.3 1.3 72.1 12.7 131.1 49.2 172.8 107.9 20.4 28.7 42.2 22.8 70.8 21.5-56.6-105.2-143.2-164.6-254.9-191.3 3.3-1.7 5.9-2.4 8.6-2.4 3.5 0 7 .2 10.4.8 107.1 19.2 186.7 78 243 169.8 16.6 27.2 23.2 30.4 58.8 20.3C1069 326.4 962 245.7 816.8 210.7c34.7 4.9 69.1 10.2 100.8 22.5 101.2 39.2 177.8 107 223 206.6 11.1 24.5 26.1 32.6 50.7 27.9 2.7-.5 5.4-.9 12.5-2.1-35.8-97.9-94.9-174.7-179-231.6zM379.8 345.5c-26.4 39.6-49.7 76.2-61.5 121.2h173.5c-45.4-35.6-90.4-65.7-112-121.2zM709.2 461.1c1.8-.2 3.7-.3 5.5-.5 4.7-82.3 2.5-164.1-25.6-242.9 6.7 81.2 13.4 162.3 20.1 243.4zM425 351.6c22.6 40.1 56.1 68.3 96.5 89.2 1.4-1.5 2.8-3.1 4.2-4.6-32.2-29.7-64.3-59.5-96.5-89.2-1.4 1.6-2.8 3.1-4.2 4.6z"/><path d="M1557.6 450.8h-213.7c-11.7-21.9-24.5-42.3-56.1-44-12.2-.7-26-7-35.4-15-7.6-6.5-13.8-19.9-12.8-29.4.8-8.3 11.9-16.2 19.5-23.1 4.2-3.8 10.7-5.3 18.2-8.7-22.9-16.8-43.8-32-64.7-47.3 1.3-2.1 2.7-4.1 4-6.2 32.2 17.8 64.4 35.6 96.7 53.4l1.8-1.2c-22.4-21.3-43.8-43.6-67.6-63.3-9-7.5-22.9-10.7-35.1-12.2-16.4-2.1-33.7 1.5-49.7-1.7-9-1.9-20.8-11.5-23-19.8-2.5-9.2 3.6-21.3 7.9-31.4 2.2-5.1 8.7-8.5 16.2-15.3-26.1-8.7-50.1-16.6-74.1-24.5 38.2-8.5 72.9 5.8 108.8 14-27.9-15.6-56.2-29.6-85-42.2-6.8-3-15.9-3.2-23.3-1.4-11.3 2.7-21.9 8.1-32.9 12.3-17.8 6.8-35.7 9.4-49.8-6.7s-7.2-31.7 7.9-49.1c-27.5-1.7-51-3.2-74.6-4.7.1-2.5.1-5 .2-7.5 34.2-3.3 68.4-6.7 106.6-10.4-16.4-4.1-28.8-8-41.6-10.2-37.2-6.4-75.2-18.1-106 17.6-5 5.8-14.2 8.5-22 11-20.9 6.7-39.3-6.6-40.4-28.5-.2-4.7 0-9.3 0-18-24.2 7.2-45.9 13.6-67.7 20.1-.9-2.1-1.7-4.2-2.6-6.2 32.1-14.7 64.3-29.4 96.4-44.1-24.1.7-46.4 5.3-68.9 8.1-19.8 2.5-34.3 10.2-44.9 28.4-8.5 14.5-20.6 27.8-33.8 38.2-14.7 11.6-35.4 3.3-41.7-14.7-2.8-8.1-3.1-17.2-5.2-29.9-22.8 14.5-44.5 28.2-66.2 42-1.4-1.9-2.9-3.9-4.3-5.8 28-23.6 55.9-47.1 87-73.4-26 12-48.1 23.1-71 32.4-23.1 9.4-37.7 23.9-41.1 49.8-1.3 9.9-5.9 21.1-12.7 27.9-8 8.1-20.5 17-30.4 16.4-9.7-.6-18.8-12.6-27.6-20.2-2.4-2.1-2.8-6.5-5.4-13-16.3 19.3-30.4 36.1-44.5 52.8-2-1.4-4.1-2.8-6.1-4.2 18.2-28.9 36.4-57.7 54.6-86.6-18.1 12.2-33.6 26.5-50.3 39.4-22.8 17.6-36.4 38.2-32.4 68.8 1.4 10.4-1.1 23.2-6.5 32.1-5.3 8.8-16.1 18.6-25.3 19.6-11.2 1.2-23.3-6.5-36.7-10.9-6.3 15.1-13.9 33.4-21.6 51.8-2.1-.7-4.3-1.4-6.4-2.1 7.2-30.4 14.4-60.7 21.7-91.1-16.4 18.2-28.8 37.2-40.8 56.4-10.5 16.9-16.5 33.9-6.4 54 4.2 8.3 4.5 18.8 5.3 28.4 3.1 38.4-13.9 51.7-51.5 38.2-2.5 17.5-4.9 34.7-7.3 51.8-5.7-15.1-7-29.9-8.2-44.7-1.1-14-2.1-28.1-3.1-42.1-2 .1-3.9.2-5.9.3-8 29.4-16.4 58.6-23.6 88.2-1.9 7.7-2.3 17.4.7 24.4 6.2 14.6 11.8 25.3 18.2 32.9H0v15.1h245c9.9 2.5 22.3 2.8 38.8 2 .7 0 1.6.3 2.1-.1 5.3-4 12.5-7.1 15.4-12.4 18.2-34 31.6-71.3 53.6-102.5 108.6-153.7 256.6-227.6 446.2-214.7 110.6 7.5 205.4 50.9 287 124.4 57.4 51.7 100.4 113.4 127.2 186.2 2.7 7.3 10.3 17.7 16.3 18.1 26.6 2 53.5.9 84 .9-8.9-11.5-15.3-19.6-21.6-27.8 11.4 3.6 19.6 10.6 28.6 16.4 7.9 5.1 16.7 9 25 13.4.6-1.3 1.3-2.6 1.9-3.9h207.9v-15zM1557.6 815.7v-15.1H1203.8v1.8c-2.7 7.4-4.8 15.1-6 23.2-3.6 23.9-16 42.8-32.4 60-39.3 41.1-78.7 82.2-117.3 124-22 23.8-48.3 36.8-80.4 39.8-47.2 4.3-93.6 13.1-139.1 26.6-18.4 5.4-37.2 9.9-57.6 8.3-18.4 1.4-36.4-4.1-54.5-9.3-31.5-9.1-63-18.2-94.5-27.2-25.6-7.3-47.6-21.2-68.7-36.9-25.2-18.7-51.6-35.5-81.1-47-19.2-7.5-33.5-21-42.9-39.5-7.5-14.6-15.3-29-23.2-43.4-6.3-11.6-15.3-20.9-26.4-28.1-18.6-12-30.7-28.8-37.6-49.6-.3-.9-.6-1.7-.9-2.6h-5.9c.7 1.9 1.4 3.8 2 5.8 7.3 22 19.6 40 39.9 52.5 14.5 8.9 24.5 22.3 31.9 37.6 5.2 10.7 10.5 21.3 16 31.8 10.2 19.7 25.2 34.4 45.9 43 33.7 14 65.1 32.1 94 54.4 16.4 12.7 34.7 21.8 54.7 27.4 30.4 8.4 60.7 17 91 25.4 20.2 5.6 40.2 12.3 61.6 11.4.1.5.1 1.1.2 1.6 15.1-2.6 30.3-4.7 45.2-8 33.7-7.4 67.1-16 100.9-23.1 17.9-3.7 36.3-5.6 54.5-7.6 32.9-3.7 59-19.4 80.8-43.6 22.6-25 45.3-50 68.6-74.5 17.1-18 35.2-35.1 52.6-52.9 15-15.4 24.5-33.9 28-55.2.6-3.7 1.4-7.3 2.3-10.9h5.3c-1.1 4.1-2.1 8.3-2.8 12.6-3.9 22.7-13.8 42.7-30.4 58.2-44.1 41-83.8 86.3-125.1 130-22.2 23.5-49.1 35.7-80.5 40.6-35.2 5.4-70.3 11.5-105.3 18.3-18.2 3.6-35.8 9.9-53.7 14.4-30.1 7.6-59.9 6.1-89.6-2.5-34-9.8-68.2-19.1-102.4-28.4-20.5-5.6-39.4-14.3-56.1-27.4-25-19.6-52-35.8-81.7-47.1-31.2-11.8-53.7-32.4-67.2-62.9-3.2-7.3-7.3-14.2-10.7-21.4-7.5-16.1-18.9-28.9-33.9-38.4-16.5-10.5-28.1-25.1-34.5-43.3-2.1-6-4.3-11.9-6.7-17.8h-6.3c3.1 7.4 6 15 8.8 22.6 7 19.6 19.6 34.8 37.3 45.9 12.5 7.9 22.1 18.7 28.8 31.9 4.9 9.6 10.1 19.1 14.9 28.8 14.2 28.8 36.2 49.4 66.1 61 31.7 12.3 61 28.4 87.7 49.5 13 10.3 27.8 17.4 43.8 21.8 37 10.3 73.9 20.9 111 31 33.2 9 66.9 10.4 99.8-.4 48.3-15.9 98.1-23.9 148.2-30.6 33.5-4.4 62.4-18.3 85.8-42.9 18.5-19.4 36.6-39.3 55.3-58.5 22.9-23.5 46.4-46.6 69.6-69.9 16.2-16.4 27.8-35.7 32-58.3 1.1-5.8 2.5-11.4 4.3-16.8h14.6c-1.1 3.2-2 6.4-2.9 9.6-7.5 29.4-22.3 54.2-43.5 75.5-37.4 37.6-75.3 74.6-112.4 112.4-31.1 31.8-68 51-112.3 56.6-45.5 5.8-90.2 15.2-133.8 30.1-18.3 6.2-37.5 8.4-60.8 6.9-33.3-.4-68.4-12.1-104-20.6-16.4-3.9-32.5-8.9-48.7-13.2-19.7-5.3-37.6-14.3-53.7-26.6-22.4-17-46.6-30.5-73-40.2-37.5-13.9-65.6-38.7-84.2-74.1-12.4-23.7-27.8-44.6-49.7-60.6-16.4-12-24.5-30.2-32.4-48.4-1.1-2.5-2.2-4.9-3.3-7.4h6.5v-15.1H0v15.1h264.7c1.4 3.1 2.8 6.3 4.2 9.4.3.7.9 1.5 1.6 1.9 5 3.3 10.2 6.3 14.9 10 1.5 1.2 2.2 4.3 2.3 6.5.2 4.3-.4 8.6-.7 14.5 3.1-2.1 4.5-3.8 5.8-3.8 2.3 0 5.8.4 6.7 1.9 3.6 5.8 6.3 12.1 9.5 18.7 1.3-.4 3.1-.8 3.5-.9 3.3 4.1 6.1 7.6 8.9 11.1.4.5 1.1 1.3 1 1.5-2.7 4.9 2.4 6 4 8.8 2 3.4 3.6 6.9 5.2 10.4.6 1.1 1 3.5 1.3 3.4 5.9-.6 7 6 11.5 7.5 1.5.5 2.8 3.2 3.3 5.2 1.5 5.5 2.6 11.1 3.9 17.1 1.2-.7 2.6-2.2 4-2.2 2.3-.1 6 .1 6.8 1.4 3.3 5.5 5.6 11.6 8.4 17.4.3.6.8 1 1.3 1.6 1.6-.4 3.2-.9 3.8-1 3.2 4.6 6.2 8.7 9.7 13.7.1-.1-.6 1.4-1.2 2.9 2.6 2.4 4.9 4.5 7.2 6.6 2-1.6 3.8-3 5.3-4.2 2.7 3 5.3 5.6 7.5 8.3 2.5 3.1 5.6 6.2 6.8 9.8 1.3 3.7.6 8.1.8 13.4 5 2.6 11.3 5.9 18 9.4-2.3 3.8-2.5 7.8 3.5 10 1.9-1.6 3.9-3.2 6.7-5.5 1.8 2.7 4.8 5.2 4.9 7.6.1 6.2 5 6.8 8.7 7.9 1.8.6 5.3-1.9 7-3.8 3.1-3.5 5.4-4 8.8-.5 4.5 4.5 9.6 8.5 14.7 13 1-.8 2.4-1.9 2.9-2.2 4.8 3.2 8.9 5.9 13.7 9.2-1 6.3 6 4.3 9.4 6.8 1.5-2.6 2.7-4.8 4-7.2 4.7 3.4 8.7 6.6 13 9.3 1.2.8 3.3.7 4.9.5 1.3-.1 3.2-1.8 3.5-1.4 1.2 1.3 2.5 3 2.5 4.6 0 4-.6 7.9-1 12.1 7.9.9 14.8 1.7 22 2.5-1.6 7.2 5.7 9.1 9.9 12.8 5.4 4.7 13.7 4.9 18.2 11.4.4.6 1.9.7 2.8.7 6.6 0 13.2-.2 19.8 0 1.1 0 2.2 2.2 3.1 3.5 2.4 3.7 4.7 7.4 7.8 12.5 1.2-3.1 1.4-5.1 2.5-6 1.7-1.5 4.7-3.6 6-3 6 2.9 11.5 6.6 17.2 10 .5.3 1.1.4 1.8.7 1.3-1.4 2.5-2.8 2.7-3 5.5 2 10 3.6 15.5 5.6-.1 6.6 6.8 2.3 10.4 4.6 1-3.1 1.8-5.6 2.6-8 5.4 2.2 9.8 4.3 14.4 5.8 1.6.5 3.7-.1 5.4-.7.9-.3 1.8-2.4 2-2.3 1.4.7 3.3 1.5 3.8 2.8.8 2.1 1 4.6 1 7 .1 4.7 2 5.9 6.8 5.8 6.4-.1 14.1-4.6 19.2 3.7.3.6 2.3.8 3.1.4 5.7-3.4 9.7.9 14.3 2.6 2.8 1 6.1.7 9.1.9 2.2-7 4.8-8.2 10.7-5.1 1.5.8 2.1 3 3.4 4.3 1.6 1.4 3.4 3.2 5.3 3.5 7.5 1.2 15.1-3.5 22.7-.2.5.2 1.3-.1 1.8-.4 4.7-3.3 9.3-6.5 13.9-9.9 3-2.2 5.3-2.4 8.6 0 3.2 2.4 7.2 3.5 10.9 5.3 2.3-5.6 6.3-4.1 10-3.4 6.3 1.3 12.6 2.7 19.3 4.1.5-3.9.7-6.4 1.1-9.2 5.3.4 10.4-.6 13.7 5.2.7 1.2 4 1.7 6 1.4 6.9-1.1 13.7-2.6 20.5-4 .8-.2 1.8-.4 2.3-.9 3.5-3.4 7-6.8 10.2-10.4 3.4-3.8 6.2-4.7 11.7-2.6 5.6 2.2 7.8 5.9 9.6 10.7 4.1-1.9 7.7-3.6 11.6-5.3.7 2.3 1.2 4 1.9 6 3.7-.8 7.2-1.3 10.4-2.4 3.7-1.4 8.2-1.1 9.9-6.8.9-3.2 4.9-6.2 8.2-7.8 3.2-1.5 7.3-1.2 11-1.6-2.1-9.9 0-12.2 13.4-16.3 1 2.9 2.1 5.8 3.8 10.6 7.2-5.4 13.6-10 19.6-15 1.4-1.1 2.3-3.6 2.3-5.5 0-6.2 1.7-10.6 9.4-10.7-.6-3.1-1.1-5.7-1.6-8.2 5.5-1.8 10.5-3.9 15.3 1 .8.8 3.8-.1 5.5-.9 6.2-3.2 12.3-6.6 18.3-10 .7-.4 2-.9 2-1.4.2-6.5 5.9-10.1 8.2-15.5.7-1.8 4.1-3.1 6.4-3.5 4.3-.7 8.7-.6 13.6-.9-5.6-9.4-5.6-9.4 2.7-15.5.7-.5 1.4-1 2.1-1.6 4.9-3.8 9.9-6.5 14.4-2.3 10.2-5.3 19.5-10.2 29.3-15.3-1.9-2.9-3.2-4.9-4.7-7.1 4.6-3.4 8.8-7.2 15.2-3.8.9.5 3.5-.9 4.5-2.1 3.3-3.9 5.3-10.3 9.3-11.9 7.7-3 7.5-9.8 8-14.8.9-9.3 4.2-14.7 13.6-16 1.2-.2 2.5-.9 3.5-1.6.7-.5 1-1.6 1.5-2.4 1.4-2.4 2.3-5.5 4.4-7.1 5.3-4.1 11-7.6 17.1-11.7-2.6-2.9-4.2-4.8-6.1-6.9 3.9-3.7 7-7.9 13.3-6.4 1.5.3 4.2-1.6 5.2-3.2 4.2-6.5 8-13.3 12-20-.2-3.8-.6-8.6 1.6-11.3 5.8-7.1 10.2-14.8 13.3-23.2.6-1.5-1.8-3.9-1.5-5.8 1.3-10 2.5-20.1 11.6-26.8.7-.5 1.2-1.2 2.1-2.2-3.3-2.2-2.9-4.1-1.6-6h277.3z"/><path d="M1104.4 902.5c1.8-1.1 3.9-1.8 5.3-3.2 6.6-6.8 13.4-13.5 19.5-20.8 13.1-15.6 23-33.1 26.2-53.5 1.3-8.3 3.2-16.4 5.5-24.4h-4.3c-1.8 6.3-3.3 12.7-4.3 19.2-4.1 25.8-16.2 47.7-33.3 67-4.8 5.4-9.8 10.5-14.6 15.7z"/><path d="M1135 875.7c-5 5.9-10.1 11.8-15.2 17.7 5.5-5.3 11.1-10.5 16.5-15.9 13.3-13.3 21-29.3 23.5-48 1.3-10 3.6-19.6 6.6-28.9h-3.8c-2.5 8-4.5 16.2-5.7 24.7-2.6 18.9-9.5 35.8-21.9 50.4zM524.6 896.9c26.9 17.7 53.4 36.2 80.8 53 35.5 21.7 75.1 32.2 115.4 41 28.3 6.1 55.4 5.9 82.3-6.7 9.3-4.4 20.2-6.5 30.6-7.5 24.1-2.4 48.3-3.3 72.5-5.4 31-2.6 58.9-12.5 84.1-31.8 26-19.9 53.4-38.2 81.1-55.9 19.9-12.8 33.8-29.5 40.9-51.7 3.4-10.4 6.7-20.8 10-31.3h-5.7l-9 28.8c-6.5 20.7-18.8 37.5-38 48.3-29.7 16.7-56.9 36.9-83.2 58.4-23.3 19.1-50.1 28.3-79.9 29.9-25.9 1.4-51.9 2.7-77.7 5.4-11.4 1.2-23.1 4.5-33.6 9.2-24.2 10.8-48.7 10.1-73.7 5.5-54.8-10-104.8-31.5-150.3-63.8-18.5-13.1-37.5-25.5-56.6-37.8-29.4-18.9-50.9-44-65.5-75.9-1.2-2.7-2.5-5.4-3.8-8.1h-4.6c10.1 20.4 20.8 40.4 36 57.8 13.7 15.8 30.7 27.3 47.9 38.6z"/><path d="M511.6 877.2c27 17.5 54.1 34.9 81.1 52.6 35.8 23.5 74.6 39.6 116.5 48.6 29.4 6.3 57.7 8 86.2-5.2 11.9-5.6 26.2-7.2 39.6-8.3 22.8-1.8 45.8-1.7 68.7-2.7 28.4-1.2 54-9.9 76.7-27.6 26.6-20.7 53.3-41.4 81.1-60.5 19-13 33.7-28.8 40.5-50.5 2.4-7.7 4.7-15.3 7.1-23h-4.3c-2 5.8-4.1 11.7-6.3 17.5-7.7 20.4-20.3 35.8-38.1 48.5-25.2 17.9-50 36.5-73.2 56.9-26.6 23.4-56.9 34.2-91.8 34.9-24.6.5-49.3 1.1-73.9 2.8-9.7.7-19.9 3-28.8 7-27.3 12.3-54.9 11.2-83.2 5.3-40.1-8.4-76.8-24.5-111.1-46.6-27.4-17.7-55-35.2-82.7-52.5-26.7-16.8-45.7-39.7-57.7-68.9-.7-1.6-1.3-3.3-2-4.9h-4.7c2 4.6 4 9.1 5.9 13.7 11.5 26.4 30.2 47.2 54.4 62.9z"/><path d="M545.4 839.1c18.6 10.1 36.7 21.2 54.4 32.6 16.9 10.9 32.4 23.9 49.6 34.3 31.6 19.2 65.9 29.4 102.8 20.4 28.1-6.8 56.1-10 84.8-8.5 12.8 0 25.5.3 38.3-.1 31.5-1 58.8-11.1 78.3-37.5 14-18.9 31.1-34.7 49.1-49.7 11-9.1 21.4-18.9 31.8-28.6.5-.4.9-.9 1.4-1.4h-7.9c-13.3 11.9-27.3 23-40.3 35.3-13.5 12.8-26.8 25.9-38.4 40.3-17.1 21.1-38.3 33.2-65.2 35.3-15.3 1.2-30.6 1.7-44 2.4-31.6-2.8-60.6.8-89.4 7.6-32.7 7.7-63.2-.2-91.7-16-14.5-8-27.9-18.1-41.8-27.2-21-13.7-42-27.4-63-41-6-3.9-12.1-7.5-18-11.6-9.4-6.5-16-15.1-20.4-25.1h-7.1c7.1 17 19.7 29.3 36.7 38.5zM433 853.1c-6.2-8.6-12.3-17.2-18.5-25.7-6.6-9-14.4-17.3-20.1-26.8h-5.8c11.1 20 29.7 34.2 43.2 52.4.1.2.8.1 1.2.1z"/><path d="M515.2 900.8c22.7 14.7 44.6 30.5 66.9 45.7 20.8 14.2 42.6 26.8 66.8 34 27.3 8.1 54.9 15.3 82.6 21.6 17 3.8 34.7 5.9 52.1 1.5 10.9-2.7 21.4-6.7 32.1-10.1 28.7-9.2 58.8-9.4 88.3-13 20.9-2.5 41.8-4.8 60.8-14.4 11.7-5.9 22.5-13.5 33.5-20.8 27.7-18.5 55-37.4 82.8-55.7 19.4-12.8 32.7-30 40-51.8 3.7-11 6-22.5 9.8-33.5l1.2-3.6h-4.6c-3.1 10.2-6.1 20.5-9 30.8-7.6 26.6-23.5 47.6-49.3 60.5-25.4 12.7-48.8 28.7-70.6 47-26.5 22.2-57.2 33.1-91.2 36.3-27.3 2.6-54.6 5.5-81.8 9.1-8.2 1.1-16.2 4.6-24.1 7.4-14.7 5.4-29.6 9.7-43.5 7.9-25.4.9-47-7.7-69.4-12.4-47.5-9.9-88.8-32.9-127.7-60.9-14.7-10.6-29.8-20.8-45-30.7-35.6-23-60.7-54.5-78.6-92.7-.4-.9-.8-1.7-1.2-2.6h-4.9c4.8 8.7 9.6 17.4 14.7 25.9 17.7 30 40 55.4 69.3 74.5z"/><path d="M451.6 847.1c14.7 22.5 31.4 42.9 54.7 57.1 11.1 6.8 21.7 14.2 32.3 21.7 14.5 10.2 28.9 20.5 43.1 31.2 32 24.1 69.5 35.3 107.4 45.1 25.5 6.6 51 13.3 77.8 14.8 11.7-1.8 23.6-2.9 35.1-5.4 15.2-3.3 29.9-8.7 45.1-11.5 27.6-5.1 55.4-8.8 83.2-13.1 30.2-4.7 56.4-17.1 80.2-36.6 20.2-16.5 42.3-30.7 64.5-44.5 29.8-18.6 50.8-43.2 59.9-77.4 2.4-9.2 4.3-18.5 6.6-27.7h-3.6c-2.4 8.9-4.6 17.9-7 26.8-8.8 32.1-26.5 57.3-56 73.7-26 14.4-50.9 30.4-73.6 49.6-22.3 18.8-48.5 27.9-76.7 32.3-27.5 4.3-55.3 7.1-82.7 12-15.4 2.7-30.3 8.6-45.5 12.5-25.2 6.4-50.2 3.6-75.1-2.1-33.7-7.7-67.5-15.4-99-30-14.4-6.7-28-15.4-41.3-24.2-24.3-16.2-47.8-33.5-72.1-49.6-32.4-21.6-55.8-51.2-73.9-84.8-2.9-5.3-5.7-10.7-8.5-16h-5.4c3.6 6.1 7.3 12.1 11.2 18 6.4 9.2 13 18.5 19.3 28.1z"/><path d="M384.7 845.8c15.1 9.7 25.9 23.4 33.8 39.4 5.1 10.3 10.1 20.6 15.2 30.8 9.1 18.2 23.3 30.3 42.2 38.1 15.5 6.4 30.4 14.6 44.5 23.6 14.4 9.2 27.6 20.1 41.1 30.6 18.1 14 37 26 59.4 32.2 31.8 8.9 63.6 17.8 95 27.9 28.7 9.2 57.8 13.2 87.5 7.7 16.3-3 32.1-8.4 48.2-12.4 35.9-8.9 72.3-15.3 109.2-18.4 34.1-2.9 61.5-16.3 84.7-41.9 37.6-41.8 77-82 115.5-123 11.5-12.2 20.1-26 24-42.4 1.6-6.7 2.6-13.6 3.8-20.4 1-6 2.7-11.7 4.8-17.2h-4.7c-.4 1.2-.8 2.5-1.1 3.8-2.8 10.2-5.1 20.5-7.1 30.9-2.9 14.9-9.5 27.8-19.9 38.7-27.9 29.3-56 58.4-83.8 87.8-14.2 15.1-28.1 30.6-41.8 46.2-17.7 20.2-40.2 29.8-66.5 32.1-42.9 3.7-85.2 10.7-126.8 22.1-18.7 5.1-37.9 8.8-57.1 11.1-22.9 2.7-45-3.6-66.9-10-31.5-9.2-63-18.5-94.6-27.1-23.5-6.4-43.4-19-62.4-33.5-12.7-9.7-25.9-18.9-38.5-28.7-15.7-12.3-33.4-20.7-51.4-28.6-14.4-6.4-25.1-16.7-32.6-30.4-5.8-10.4-11.3-20.9-16.8-31.4-7.9-14.9-17.9-28.2-31.5-38.3-15.9-11.9-27.1-26.8-34.9-44.6h-5.1c7.4 18.5 17.4 34.3 34.6 45.3z"/><path d="M462.8 876.1c9.7 13.4 21.9 24.3 35.7 33.6 23.3 15.7 46.5 31.5 69.1 48.2 21.3 15.8 42.4 31.6 68.3 39 30.1 8.6 60.2 17 90.6 24.6 29.6 7.4 59.3 7.3 89.3.6 43.2-9.5 86.7-18 130.1-26.2 22.1-4.2 43.2-10.6 59.8-26.1 25.8-24 55.3-42.9 83.8-63.2 26.5-18.9 46.7-42.8 53.2-75.5 2.1-10.3 4.6-20.5 7.6-30.4h-3.6c-1.9 7-3.5 14.1-5 21.2-7.8 38-29 66.3-61.2 87.1-26.9 17.4-54 34.4-77.8 56-17.1 15.5-38.3 21.9-60.6 25.8-35.1 6.2-70.1 12.7-105.1 19.5-14.4 2.8-28.4 7.4-42.8 10.1-20.5 3.9-41 2.6-61.2-2.3-28.7-7.1-57.4-14.4-85.9-22.2-23.8-6.5-45.2-18.1-65.3-32.4-27.4-19.6-55.1-38.8-82.9-58-14.8-10.2-27.2-22.7-38.1-36.8-16.8-21.7-31.7-44.5-45.3-68.1h-4.9c1.5 2.7 3.1 5.4 4.7 8.1 14.2 23.5 31.4 45.1 47.5 67.4z"/><path d="M443.7 865.5c-3-2.9-6-5.9-8.9-8.8.6 1.6.9 3.3 1.7 4.7 6.1 9.7 12.2 19.4 18.4 29 9.1 14.4 21.4 25.2 36.7 32.9 9.4 4.7 18.9 9.7 27.4 16 16.5 12.2 32.6 25 48.4 38.1 20.9 17.2 43.1 31.8 69.6 38.9 31.5 8.4 63 16.9 94.5 25 24.1 6.2 48.5 9.3 73.2 5.2 17-2.8 33.7-7.4 50.7-10.7 34.8-6.6 69.5-14 104.5-19 27.2-3.9 49.3-14.8 68-35 14.6-15.8 31.6-29.4 47.4-44.2 14.6-13.7 29-27.8 43.5-41.7-1.6 1-3.3 1.8-4.7 3-5.9 5.4-11.4 11.3-17.7 16.2-27.6 21.6-54.8 43.5-79.2 68.9-13.2 13.8-29.5 21.8-48.5 25.3-46.9 8.6-93.8 17.4-140.4 27.6-28.8 6.3-57.4 8.2-86.1 1.9-24.8-5.5-49.2-13.1-74.1-18.4-42.9-9.1-80.5-28-112.6-57.9-3.4-3.2-6.9-6.3-10.3-9.4-9.2-6.2-18.3-12.5-27.6-18.5-10-6.4-19.9-13-30.3-18.7-12.2-6.6-21.7-15.6-29-27.2-4-6.3-7.8-12.7-11.7-19.1 2.8 3.5 5.9 6.8 8.3 10.6 10.8 17 25.5 29.4 42.9 39.4 14.2 8.2 27.5 17.8 41 27 2.6 1.7 4.5 4.4 6.7 6.6 6.7 4.7 13.7 9.2 20.1 14.3 22.3 17.7 45.5 33.8 73.5 41.2 30.7 8.2 61.3 16.5 92.1 24 30.5 7.4 61.3 8.6 91.9.8 45.4-11.7 91.4-20.7 137.8-27.4 23.6-3.4 42.5-13.7 59.2-30.4 14-14 29.6-26.5 44.8-39.3 11.7-9.9 23.9-19.2 35.8-28.8 1.4-1.1 2.1-3 3.1-4.5-5.2 3.9-10.3 7.9-15.5 11.7-26.7 19.4-54.1 38-77.6 61.7-14.2 14.3-32.9 20.9-52.6 24.8-45.3 8.8-90.6 17.6-135.8 27-20.7 4.3-41.6 8.3-62.4 4.3-33-6.4-65.7-14.7-98.5-22.2-34.1-7.7-64.2-23.3-91.8-44.7-22.7-17.5-46.9-33.2-70.2-50-10.4-7.6-21.9-14.6-30-24.3-16-19.2-30.4-39.8-44.9-60.3-7.1-10-14.3-20-20.8-30.4h-5.2c5.2 8 11 15.7 16.4 23.5 9.5 13.8 19.2 27.5 28.8 41.3z"/><path d="M559.7 833.6c4.9 2.7 9.8 5.6 14.4 8.8 24.7 17.1 49.1 34.6 74.1 51.3 35.2 23.5 73.2 32.9 115.3 22.2 21.8-5.5 44.2-8.7 66.9-7 13.4 0 26.8.6 40.2-.1 31.8-1.8 58.2-13.9 77.7-40.4 8-10.9 18.2-20.3 28.4-29.3 14.6-12.8 30.4-24.3 45.2-37 .6-.5 1.1-1 1.7-1.5h-7.7c-6.5 5.5-13 11.2-20 16-21.9 15.1-41.1 33.1-57.9 53.7-15.7 19.2-36.2 29.1-60.3 31.9-16.7 1.9-33.6 2.5-50.4 3.7-19.9-2.1-39.6-1.3-58.6 4.1-44.3 12.5-84.3 2.5-121.3-22.5-19.9-13.4-39-28-58.6-41.9-6.9-4.9-13.9-9.6-21.4-13.5-14.8-7.8-25.3-18.5-32.4-31.4h-7.6c6.8 13.8 17.5 24.8 32.3 32.9zM545.2 953.1c-.1-.1-.1-.1 0 0 0 0 .1.1.2.1-.1-.1-.2-.1-.2-.1-.1-.1-.1-.1 0 0z"/><path d="M398.6 831.6c8.6 7.8 16.7 16.5 23.4 25.9 11 15.7 20.7 32.4 30.8 48.7 5.9 9.4 13.9 16.3 24 21.1 19.1 9.3 37.7 19.3 54.2 32.8 12.1 9.9 24.6 19.1 36.8 28.8 18.7 14.9 38.4 27.8 62 34.1 29.2 7.8 58.3 15.8 87.3 24.3 39.2 11.5 78.3 14.5 118.2 3.1 44.5-12.7 90-20.9 136.1-25.1 21.3-1.9 39.4-10.5 54-26.4 12.5-13.5 24.9-27.1 37.8-40.2 25.6-25.8 51.6-51.1 77.3-76.8 16.2-16.2 26.7-35.2 29.8-58.3 1.1-7.9 2.8-15.7 5.1-23.3h-3.6c-.4 1.2-.7 2.4-1.1 3.6-2.4 8.7-3.6 17.7-5.5 26.6-4.8 22.4-17.4 40.4-33.2 56.2-21 20.9-42.8 41-63.9 61.7-14.2 13.9-28.5 27.9-41.8 42.6-16.2 17.9-35.6 27.1-59.7 29.9-31.5 3.6-62.8 9.6-93.9 15.4-19.9 3.7-39.4 9.6-59.3 13.7-25.4 5.2-50.8 3.6-75.8-3-35.3-9.2-70.5-18.8-105.7-28.3-27.8-7.5-51-23.2-72.8-41.2-24.8-20.3-50.2-39.6-79.2-53.8-12.3-6-21.6-15.7-29.1-27.1-10.8-16.7-21.2-33.6-32.8-49.8-6.2-8.7-14.6-15.9-21.8-24-6.3-7-11.6-14.5-16.2-22.5h-5.6c6.3 11.9 14.2 22.2 24.2 31.3z"/><path d="M397.7 841.6c8.1 6.2 15.7 14 21.2 22.5 9.5 14.6 17.3 30.4 25.8 45.7 7.5 13.6 18.6 22.6 32.7 29.1 14.5 6.6 28.6 14.3 41.9 23 12.8 8.4 24.6 18.4 36.4 28.2 24.9 20.7 51.4 37.3 83.7 44.8 29.8 6.9 59 16.7 88.4 25.2 31.5 9.1 63.4 11.8 95.3 2.7 49-14 98.8-23 149.4-28 24.6-2.4 45.1-12.6 61.3-31.4 5.1-5.9 10.2-11.8 15.6-17.4 33.3-34.6 66.8-69.1 100.1-103.6 12.4-12.8 21.9-27.3 26.2-44.8 1.7-7.1 2.6-14.4 3.9-21.7 1-5.3 2.4-10.4 4.1-15.4h-4.3c-.3 1-.6 2-.8 3-1.8 7.1-3.6 14.3-4.6 21.5-2.8 20.7-11.5 38.4-25.9 53.3-26.3 27-52.9 53.6-79.2 80.5-12.2 12.6-24.4 25.2-35.7 38.6-18.2 21.6-41.4 30.8-69 33.8-30.2 3.4-60.2 8.9-90.1 14.5-21.8 4.1-43.2 10.3-65 14.9-30.3 6.3-59.7.4-88.9-7.9-29.3-8.3-58.6-16.4-87.9-24.6-21.9-6.1-41.8-16.2-59.8-30.1-21.2-16.4-42.3-33-64-48.7-8.3-6-18.1-10-27.5-14.4-14.7-6.9-26.8-16.4-34.7-31-5.9-10.8-12.3-21.3-18.4-32.1-8-14.1-18.3-26.3-30.7-36.6-11.8-9.8-20.5-21.6-27.3-34.9h-5.2c7.8 16.3 18.4 30 33 41.3z"/><path d="M752.8 871.5c25.1-3 50.2-6.1 75.4-8.3 25.6-2.2 49.2-9.4 69.7-25.2 16.1-12.4 32-24.9 48-37.4h-8c-15.1 11.7-30.3 23.4-45.6 34.8-18.1 13.5-39.1 20-61.3 22.6-24.5 2.8-49 5.5-73.4 8.4-29.3 3.5-56.4-3.1-80.8-19.4-22.7-15.2-45.2-30.7-67.5-46.4H600c26 18.6 52.1 37.1 79.1 54 22.1 14 47 20.1 73.7 16.9z"/><path d="M697.2 829.4c17.5 13 37.7 18.7 59.1 17.5 32.2-1.8 64.2-6.6 94.5-18.1 18.9-7.2 36.2-17 52.7-28.2H894c-34.2 20.7-71.5 34.5-112.8 39.3-26.7 3.1-52.8 4.4-76.2-11.9-10.6-7.4-20.9-15.4-30.6-24-1.3-1.2-2.6-2.3-4-3.4h-8.7c4.3 3.4 8.6 6.9 12.7 10.6 7.3 6.5 15 12.4 22.8 18.2z"/><path d="M577.1 809.3c27.2 20.2 54.5 40.6 82.9 59 31.1 20.1 65.5 27.5 102.9 21.2 24.6-4.1 49.7-6.5 74.6-7.7 33.1-1.7 62.3-10.9 85.5-35.7 15.5-16.5 33.2-30.3 51.7-43.1 1.1-.7 2.1-1.5 3.2-2.2H969c-10.6 7.9-21.1 15.8-31.4 24-9.6 7.7-18 16.8-27.2 25-17.9 16-39 24.9-63 25.5-33.4.8-66.3 5.5-99.2 10.5-26.6 4-52.3-1.6-74.7-15.8-30.8-19.5-60.2-41.3-90-62.4-2.9-2.1-5.6-4.4-8-6.8h-7.9c2.9 2.9 6 5.8 9.5 8.5z"/><path d="M520.3 872.6c33.5 20.7 67 41.2 100.6 61.8 28.1 17.3 58.4 28.6 90.8 35 25 4.9 49.2 5.4 73-5.4 6.2-2.8 13.1-4.9 19.9-5.5 20-1.9 40-2.9 56.1-4 17.5 0 30.9.3 44.3-.1 29.4-.9 54-12.6 75.9-32.1 24.7-22 50.3-43.1 75.9-64 13.1-10.7 24.6-22.6 31.4-38.2 2.8-6.5 5.8-13 8.6-19.5h-5.4c-11.9 25-29.2 46.7-53.2 64.3-20.6 15.2-39.3 33.3-57.6 51.3-22.7 22.3-49.4 33.5-80.9 34.1-11.7.2-23.4 0-35 0-32.5-1.8-64.1 1.9-95.2 12.6-25.4 8.7-50.9 3.3-76-2.9-25.8-6.4-49.4-18-72-31.8-33.2-20.4-66.3-40.8-99.7-60.7-25.5-15.3-43.7-36.3-53.1-64.6-.3-.8-.5-1.5-.8-2.3h-5.5c2.2 5.4 4.5 10.7 6.8 16.1 10 24.9 28.8 42.1 51.1 55.9z"/><path d="M480 817.5c9.5 21.5 26.1 36.1 45.8 47.9 34.9 20.8 69.6 42 104.3 63.1 19.9 12.1 40.8 21.8 63.3 27.6 21.5 5.6 43.3 9 65.4 4.5 12.4-2.6 24.4-8.2 36.9-9.7 21.6-2.7 43.5-3.2 65.2-4.7 0 .2.1.3.1.5 14.1 0 28.1.2 42.2 0 26.7-.5 49.4-10.4 68.8-28.8 24.8-23.5 49.5-47.2 75.1-69.7 15.8-13.9 28.6-29.6 37.8-47.5h-6.7c-8.4 14.1-19 26.9-31.7 38.6-26.1 24.1-51.4 48.9-76.9 73.5-17.6 17.1-38.3 27.4-62.8 28.7-15.1.8-30.3.1-45.4.1 0-.2-.1-.5-.1-.7-24.5 1.9-49.1 3.1-73.5 5.9-11.7 1.4-22.8 6.5-34.5 8.6-24.7 4.5-48.6-.5-72-8.3-19.8-6.6-37.8-16.7-55.5-27.7-31-19.3-61.9-38.8-93.7-56.7-25.8-14.5-44.2-34.1-53.3-62.2h-5.7c.2.6.4 1.3.6 1.9 1.8 5.3 4.1 10.2 6.3 15.1z"/><path d="M552.1 814.5c9 7.9 19.6 14.2 29.4 21.1 24 17 47.5 34.7 72.1 50.7 32.8 21.3 68.8 29.8 107.7 21 24.2-5.5 48.5-8.6 77.3-6.6 8.1-.6 20.2-.9 32.2-2.4 26.5-3.3 49.2-13.6 66.4-35 13.9-17.3 30.3-32 48.4-44.8 8-5.7 15.8-11.7 23.4-17.9h-8.1c-12.5 9.4-25.5 18.3-37.5 28.3-10.3 8.5-20.2 17.8-28.7 28-20.3 24.5-46.6 35.7-77.5 37.5-7.8.5-15.6.1-23.4.1-24.4-.7-48.3 2.3-72 7.8-37.3 8.6-72 1.3-103.6-19.1-25.3-16.2-49.4-34.2-74-51.4-5-3.5-9.8-7.1-14.9-10.4-8.8-5.7-15.7-12.6-21-20.7h-7.7c3.1 5 6.8 9.6 11.5 13.8z"/><path d="M535.6 859.8c20.9 10.7 41.1 23 61.2 35.2 20.3 12.3 39.5 26.7 60.6 37.5 37.4 19.1 76.6 26.7 118.4 13.5 25.6-8.1 52.6-7.2 79.2-7.1 12.8 0 25.5-.2 38.3 0 31.7.5 57.6-11.1 79.4-34.4 22.2-23.7 45.4-46.3 69.3-68.3 11.9-10.9 22.2-22.7 30.6-35.5h-6.4c-4.1 5.7-8.7 11.1-13.9 16.3-30 30.2-60.4 60.1-90.4 90.3-16.7 16.9-37.1 25.2-60.4 26.2-18.6.8-37.2.2-55.8.2-28.9-.4-57.2 2.5-85.3 10.2-31.5 8.7-62 1.9-90.7-11.4-16.8-7.7-33-17.2-48.1-27.9-27.6-19.5-56.4-36.9-86.6-52-22.5-11.3-37.2-29-45-51.9h-6.3c8.9 26.8 26.3 46 51.9 59.1z"/><path d="M536.4 847.9c26.2 13.5 51.1 28.9 75.3 45.7 16.4 11.5 33.4 22.6 51.3 31.5 28.1 13.9 58.2 20.2 89.4 12.1 28-7.3 56.1-10 84.8-8.8 14.7 0 29.4.1 44.1 0 33.9-.3 61.8-12.4 82.2-40.4 4.4-6.1 9.6-11.7 15.1-17 20.4-19.7 40.8-39.3 61.5-58.7 4-3.7 7.7-7.6 11-11.7h-7.1c-2.4 2.7-5 5.3-7.7 7.8-17.7 16.5-35.9 32.5-53.4 49.3-9 8.7-17.5 18-25.1 28-18.8 24.6-43.6 36.7-74.2 37.4-15.6.3-31.1.1-46.7.1-27.8-.9-55.1 1.4-82.3 8.6-34 9-66.2 1.7-96.4-14.4-14.8-7.9-28.7-17.6-42.3-27.5-23.8-17.4-48.7-32.9-75.1-46-19.5-9.6-32.8-24-40.1-43.2h-6.4c1.5 4 3 8 4.8 12 7.2 16.8 21.6 27.1 37.3 35.2z"/><path d="M658.1 854.5c24.4 16.7 51 27.3 81.1 27.5 4.9-.4 9.9-.7 14.8-1.2 27.9-3.1 55.7-6.9 83.7-9.3 24.4-2.1 47-8.8 65.3-25.2 18.1-16.2 37-31.3 56.5-45.7h-6.8c-17.9 14-35.6 28.2-53.5 42.3-19.5 15.4-42 22.2-66.5 24.2s-49 4.9-73.4 8.3c-32.8 4.6-62.8-2.2-90-20.6-24.4-16.5-48.5-33.3-72.5-50.3-1.8-1.3-3.5-2.6-5.1-3.9H584c3 3.1 6.4 5.9 10.1 8.6 21.3 15.2 42.5 30.5 64 45.3z"/><path d="M700 816.9c18.3 13.5 39.1 19.7 61.6 17.4 41-4.2 79.3-15.3 114.8-33.7h-12.3c-31.6 14.5-65.4 23.6-100.6 28.5-24.6 3.4-46.5-4.8-65.7-20.3-3.2-2.6-6.4-5.4-9.5-8.1h-8l.6.6c6.1 5.5 12.5 10.7 19.1 15.6z"/><path d="M572.9 817c5.7 3.9 11.1 8.2 16.8 12.2 24.3 16.9 48 34.8 73.1 50.4 27.3 17 57.6 24.3 90 18.8 11.9-2 23.7-5.3 35.7-6.2 20.4-1.7 41-1.9 61.5-2.9 31.6-1.6 58.3-12.7 80.2-36.6 13.3-14.5 29.4-26.7 44.5-39.6 5-4.3 10.1-8.4 15.2-12.6h-6c-15.8 11.7-31.2 23.9-46.6 36.1-5.2 4.1-9.5 9.4-14.1 14.3-20.7 22.1-46.3 32.6-76.3 33.1-14.5.3-29.1-.3-43.4 1.2-15.8 1.6-31.5 5-47.2 7.8-33.3 5.9-64.6-.6-92.5-18.7-30.9-20.1-60.6-42.3-90.2-64.4-3.8-2.8-7.2-6-10.2-9.4H556c4.5 6.3 10.1 11.8 16.9 16.5z"/><path d="M785 805c4.2-1.5 8.3-2.9 12.5-4.4h-20.2l-11.1 3.3c-15.3 4.4-30 2.8-43.7-3.3H712c22.4 12.2 46.6 13.7 73 4.4z"/><path d="M765.3 823.3c13-1.7 26-4.4 38.6-8.1 15.1-4.4 30-9.1 44.6-14.6h-18.6l-13.2 4.2c-16.8 5.3-33.9 10-51.2 13.2-22.8 4.2-43.1-3.5-61.2-17.3-.1 0-.1-.1-.2-.1h-8c.7.6 1.3 1.1 2 1.7 19.2 16.6 41.7 24.3 67.2 21z"/><path d="M681.2 844.5c23.4 15.7 49.4 22.5 77.6 19.2 22.5-2.6 45.1-5.6 67.6-8.3 23.6-2.8 45.5-10.1 64.7-24.5 13.4-10 26.7-20.2 40.1-30.3h-7.7c-12.4 9.2-24.9 18.4-37.3 27.5-17.5 12.9-37.5 19.2-58.8 22-23.2 3-46.3 6.2-69.4 9.1-3.4.4-6.9.1-10.4.1-26.3.4-49.2-9.1-70.4-24.2-16.3-11.7-32.7-23.2-49.3-34.4h-9.6c2.5 1.5 5 3 7.4 4.6 18.5 13 36.7 26.5 55.5 39.2z"/><path d="M763.9 855.8c16.5-2.1 33-4.6 49.5-6.7 24.5-3.1 48.4-8.3 68.8-22.7 12-8.4 23.8-17 35.5-25.7h-7.9c-10.2 7.3-20.5 14.5-30.8 21.7-16.8 11.8-36.3 16.9-56.3 20.1-20.9 3.4-41.8 6.8-62.9 8.9-30.5 3-56.9-7.7-80.1-27-10-8.3-20.1-16.3-30.6-23.7h-11.3c14.1 9.3 27.5 19.7 40.8 30.2 25 19.7 53.2 29 85.3 24.9zM254.4 717.3h4.5v18.6h23.4v-18.6h4.5v42h-4.5v-19.2h-23.4v19.2h-4.5zM358.1 717.3h4.5v42h-4.5zM437.6 723c4.2-4.2 9.3-6.3 15.3-6.3 2.1 0 4.2.3 6.1.9s3.6 1.3 4.8 2.2 2.4 1.7 3.4 2.5 1.7 1.6 2.1 2.2l.7.9-3 2.7c-.1-.2-.3-.5-.5-.8s-.8-.9-1.6-1.7-1.8-1.5-2.8-2.2-2.3-1.2-4-1.7-3.4-.8-5.2-.8c-4.8 0-8.9 1.7-12.2 5s-5 7.5-5 12.4 1.7 9.1 5 12.4 7.4 5 12.2 5c1.7 0 3.3-.2 4.8-.6s2.8-.9 3.8-1.4 1.8-1.1 2.6-1.6 1.3-1 1.6-1.4l.5-.6V742h-9.6v-4.2h14.1v13.5c-.2.2-.4.5-.7.9s-1.1 1.1-2.2 2.1-2.3 1.9-3.6 2.7-2.9 1.5-5 2.1-4.1.9-6.2.9c-6 0-11.1-2.1-15.3-6.3s-6.3-9.3-6.3-15.3 2-11.2 6.2-15.4zM517.1 717.3h4.5v18.6H545v-18.6h4.5v42H545v-19.2h-23.4v19.2h-4.5zM730.9 743.9c-.5 1.8-1 3.3-1.8 4.6s-1.5 2.4-2.4 3.5-1.7 2-2.6 2.7-1.7 1.3-2.4 1.8-1.3.9-1.8 1.1l-.6.3c.1.2.2.4.4.7s.6.8 1.3 1.4 1.4 1.3 2.2 1.8 1.9 1 3.2 1.5 2.8.7 4.3.7l2.7-.3v3.9c-.6.2-1.5.3-2.7.3-2.1 0-4.1-.3-6-.9s-3.3-1.3-4.5-2.1-2.1-1.6-2.9-2.5-1.4-1.5-1.7-2.1l-.6-.8c-1.4.4-3.1.6-5.1.6-6 0-11.1-2.1-15.3-6.3s-6.3-9.3-6.3-15.3 2.1-11.1 6.3-15.3 9.3-6.3 15.3-6.3 11.1 2.1 15.3 6.3 6.3 9.3 6.3 15.3c.1 1.7-.2 3.6-.6 5.4zm-33.1 6.8c3.3 3.3 7.4 5 12.2 5s8.9-1.7 12.2-5 5-7.5 5-12.4-1.7-9.1-5-12.4-7.4-5-12.2-5-8.9 1.7-12.2 5-5 7.5-5 12.4 1.7 9 5 12.4zM825.7 751.9c2.5-2.5 3.7-5.5 3.7-9.1v-25.5h4.5v25.5c0 4.6-1.7 8.7-5.1 12s-7.4 5.1-12 5.1-8.6-1.7-12-5.1-5.1-7.4-5.1-12v-25.5h4.5v25.5c0 3.6 1.2 6.6 3.7 9.1s5.4 3.8 8.9 3.8 6.4-1.3 8.9-3.8zM909.5 747.6l-4.8 11.7h-4.8l17.4-42h4.2l17.4 42h-4.8l-4.8-11.7zm9.9-24l-8.1 19.8h16.2zM1005.4 759.3v-42h4.5v37.8h21.6v4.2zM1097.8 717.3h4.5v42h-4.5zM1199.5 717.3v4.2h-13.2v37.8h-4.5v-37.8h-13.2v-4.2zM1278.6 739.8l12.6-22.5h5.1l-15.6 27.3v14.7h-4.5v-14.7l-15.6-27.3h5.1l12.6 22.5z"/></svg>